# xmcd
#
# Track frame offsets:
#	150
#	8200
#	19050
#	28224
#	34989
#	42193
#	53464
#	69496
#
# Disc length: 1020 seconds
#
# Revision: 0
# Processed by: cddbd v1.5.2PL0 Copyright (c) Steve Scherf et al.
# Submitted via: audiograbber 1.83.01
#
DISCID=5f03fa08
DTITLE=Zerstörenfried - Gegenwehr macht eng
DYEAR=2008
DGENRE=Death Metal
TTITLE0=Direkteinspritzer
TTITLE1=Stahlvorhut
TTITLE2=Ringmuskel entzweit
TTITLE3=Mein Messer komme
TTITLE4=21 Kilowatt Durchfallerhitzer
TTITLE5=Scheisse fressen
TTITLE6=Scheide
TTITLE7=Date rape revisited
EXTD=
EXTT0=
EXTT1=
EXTT2=
EXTT3=
EXTT4=
EXTT5=
EXTT6=
EXTT7=
PLAYORDER=
